# MagicaVoxel @ Ephtracy

# group
o 

# material
mtllib seedbagObject.mtl
usemtl palette

# normals
vn -1 0 0
vn 1 0 0
vn 0 0 1
vn 0 0 -1
vn 0 -1 0
vn 0 1 0

# texcoords
vt 0.271484 0.5
vt 0.279297 0.5
vt 0.310547 0.5
vt 0.318359 0.5
vt 0.322266 0.5
vt 0.404297 0.5

# verts
v -1.6 0.4 0
v -1.6 0.4 -0.5
v -1.6 1.5 0
v -1.6 1.5 -0.5
v -1.5 0.2 0.2
v -1.5 0.2 -0.7
v -1.5 0.4 0
v -1.5 0.4 -0.5
v -1.5 1.5 0
v -1.5 1.5 -0.5
v -1.5 1.7 0.2
v -1.5 1.7 -0.7
v -1.4 0 0.3
v -1.4 0 -0.8
v -1.4 0.1 0.4
v -1.4 0.1 0.3
v -1.4 0.2 0.2
v -1.4 0.2 -0.7
v -1.4 1.7 0.2
v -1.4 1.7 -0.7
v -1.4 1.8 0.4
v -1.4 1.8 -0.8
v -1.3 0 0.4
v -1.3 0 0.3
v -1.3 0.1 0.4
v -1.3 0.1 0.3
v -1.3 0.2 -0.8
v -1.3 0.2 -0.9
v -1.3 1.6 -0.8
v -1.3 1.6 -0.9
v -1.3 1.8 0.4
v -1.3 1.8 -0.8
v -1.3 1.9 0.4
v -1.3 1.9 -0.8
v -1.2 0.1 -0.8
v -1.2 0.1 -0.9
v -1.2 0.2 -0.8
v -1.2 0.2 -0.9
v -1.2 0.3 0.5
v -1.2 0.3 0.4
v -1.2 1.6 0.5
v -1.2 1.6 0.4
v -1.2 1.6 -0.8
v -1.2 1.6 -0.9
v -1.2 1.7 -0.8
v -1.2 1.7 -0.9
v -1.2 1.9 0.1
v -1.2 1.9 -0.6
v -1.2 2 0.1
v -1.2 2 0
v -1.2 2 -0.5
v -1.2 2 -0.6
v -1.2 2.1 0
v -1.2 2.1 -0.5
v -1.1 0.2 0.5
v -1.1 0.2 0.4
v -1.1 0.3 0.5
v -1.1 0.3 0.4
v -1.1 1.6 0.5
v -1.1 1.6 0.4
v -1.1 1.7 0.5
v -1.1 1.7 0.4
v 0.2 0.2 0.5
v 0.2 0.2 0.4
v 0.2 0.3 0.5
v 0.2 0.3 0.4
v 0.2 1.6 0.5
v 0.2 1.6 0.4
v 0.2 1.7 0.5
v 0.2 1.7 0.4
v 0.3 0.1 -0.8
v 0.3 0.1 -0.9
v 0.3 0.2 -0.8
v 0.3 0.2 -0.9
v 0.3 0.3 0.5
v 0.3 0.3 0.4
v 0.3 1.6 0.5
v 0.3 1.6 0.4
v 0.3 1.6 -0.8
v 0.3 1.6 -0.9
v 0.3 1.7 -0.8
v 0.3 1.7 -0.9
v 0.3 1.9 0.1
v 0.3 1.9 -0.6
v 0.3 2 0.1
v 0.3 2 0
v 0.3 2 -0.5
v 0.3 2 -0.6
v 0.3 2.1 0
v 0.3 2.1 -0.5
v 0.4 0 0.4
v 0.4 0 0.3
v 0.4 0.1 0.4
v 0.4 0.1 0.3
v 0.4 0.2 -0.8
v 0.4 0.2 -0.9
v 0.4 1.6 -0.8
v 0.4 1.6 -0.9
v 0.4 1.8 0.4
v 0.4 1.8 -0.8
v 0.4 1.9 0.4
v 0.4 1.9 -0.8
v 0.5 0 0.3
v 0.5 0 -0.8
v 0.5 0.1 0.4
v 0.5 0.1 0.3
v 0.5 0.1 0.2
v 0.5 0.1 -0.7
v 0.5 1.7 0.2
v 0.5 1.7 -0.7
v 0.5 1.8 0.4
v 0.5 1.8 -0.8
v 0.6 0.1 0.2
v 0.6 0.1 -0.7
v 0.6 0.4 0
v 0.6 0.4 -0.5
v 0.6 1.5 0
v 0.6 1.5 -0.5
v 0.6 1.7 0.2
v 0.6 1.7 -0.7
v 0.7 0.4 0
v 0.7 0.4 -0.5
v 0.7 1.5 0
v 0.7 1.5 -0.5
v -1.2 0.3 0.5
v -1.2 1.6 0.5
v -1.1 0.2 0.5
v -1.1 0.3 0.5
v -1.1 1.6 0.5
v -1.1 1.7 0.5
v -1 0.4 0.5
v -1 1.5 0.5
v -0.8 0.6 0.5
v -0.8 0.9 0.5
v -0.7 0.6 0.5
v -0.7 0.8 0.5
v -0.7 0.9 0.5
v -0.7 1.1 0.5
v -0.6 0.8 0.5
v -0.6 1 0.5
v -0.6 1.1 0.5
v -0.6 1.2 0.5
v -0.5 0.6 0.5
v -0.5 0.7 0.5
v -0.5 1 0.5
v -0.5 1.1 0.5
v -0.4 1.2 0.5
v -0.4 1.3 0.5
v -0.3 0.7 0.5
v -0.3 0.8 0.5
v -0.3 1.1 0.5
v -0.3 1.2 0.5
v -0.2 0.8 0.5
v -0.2 1 0.5
v -0.1 1 0.5
v -0.1 1.2 0.5
v -0.1 1.3 0.5
v 0.1 0.4 0.5
v 0.1 1.5 0.5
v 0.2 0.2 0.5
v 0.2 0.3 0.5
v 0.2 1.6 0.5
v 0.2 1.7 0.5
v 0.3 0.3 0.5
v 0.3 1.6 0.5
v -1.4 0.1 0.4
v -1.4 1.8 0.4
v -1.3 0 0.4
v -1.3 0.1 0.4
v -1.3 1.8 0.4
v -1.3 1.9 0.4
v -1.2 0.3 0.4
v -1.2 1.6 0.4
v -1.1 0.2 0.4
v -1.1 0.3 0.4
v -1.1 1.6 0.4
v -1.1 1.7 0.4
v 0.2 0.2 0.4
v 0.2 0.3 0.4
v 0.2 1.6 0.4
v 0.2 1.7 0.4
v 0.3 0.3 0.4
v 0.3 1.6 0.4
v 0.4 0 0.4
v 0.4 0.1 0.4
v 0.4 1.8 0.4
v 0.4 1.9 0.4
v 0.5 0.1 0.4
v 0.5 1.8 0.4
v -1.4 0 0.3
v -1.4 0.1 0.3
v -1.3 0 0.3
v -1.3 0.1 0.3
v 0.4 0 0.3
v 0.4 0.1 0.3
v 0.5 0 0.3
v 0.5 0.1 0.3
v -1.5 0.2 0.2
v -1.5 1.7 0.2
v -1.4 0.2 0.2
v -1.4 1.7 0.2
v 0.5 0.1 0.2
v 0.5 1.7 0.2
v 0.6 0.1 0.2
v 0.6 1.7 0.2
v -1.2 1.9 0.1
v -1.2 2 0.1
v 0.3 1.9 0.1
v 0.3 2 0.1
v -1.6 0.4 0
v -1.6 1.5 0
v -1.5 0.4 0
v -1.5 1.5 0
v -1.2 2 0
v -1.2 2.1 0
v 0.3 2 0
v 0.3 2.1 0
v 0.6 0.4 0
v 0.6 1.5 0
v 0.7 0.4 0
v 0.7 1.5 0
v -1.6 0.4 -0.5
v -1.6 1.5 -0.5
v -1.5 0.4 -0.5
v -1.5 1.5 -0.5
v -1.2 2 -0.5
v -1.2 2.1 -0.5
v 0.3 2 -0.5
v 0.3 2.1 -0.5
v 0.6 0.4 -0.5
v 0.6 1.5 -0.5
v 0.7 0.4 -0.5
v 0.7 1.5 -0.5
v -1.2 1.9 -0.6
v -1.2 2 -0.6
v 0.3 1.9 -0.6
v 0.3 2 -0.6
v -1.5 0.2 -0.7
v -1.5 1.7 -0.7
v -1.4 0.2 -0.7
v -1.4 1.7 -0.7
v 0.5 0.1 -0.7
v 0.5 1.7 -0.7
v 0.6 0.1 -0.7
v 0.6 1.7 -0.7
v -1.4 0 -0.8
v -1.4 1.8 -0.8
v -1.3 0.2 -0.8
v -1.3 1.6 -0.8
v -1.3 1.8 -0.8
v -1.3 1.9 -0.8
v -1.2 0.1 -0.8
v -1.2 0.2 -0.8
v -1.2 1.6 -0.8
v -1.2 1.7 -0.8
v 0.3 0.1 -0.8
v 0.3 0.2 -0.8
v 0.3 1.6 -0.8
v 0.3 1.7 -0.8
v 0.4 0.2 -0.8
v 0.4 1.6 -0.8
v 0.4 1.8 -0.8
v 0.4 1.9 -0.8
v 0.5 0 -0.8
v 0.5 1.8 -0.8
v -1.3 0.2 -0.9
v -1.3 1.6 -0.9
v -1.2 0.1 -0.9
v -1.2 0.2 -0.9
v -1.2 1.6 -0.9
v -1.2 1.7 -0.9
v 0.3 0.1 -0.9
v 0.3 0.2 -0.9
v 0.3 1.6 -0.9
v 0.3 1.7 -0.9
v 0.4 0.2 -0.9
v 0.4 1.6 -0.9
v -1.3 0 0.4
v 0.4 0 0.4
v -1.4 0 0.3
v -1.3 0 0.3
v 0.4 0 0.3
v 0.5 0 0.3
v -1.4 0 -0.8
v 0.5 0 -0.8
v -1.4 0.1 0.4
v -1.3 0.1 0.4
v 0.4 0.1 0.4
v 0.5 0.1 0.4
v -1.4 0.1 0.3
v -1.3 0.1 0.3
v 0.4 0.1 0.3
v 0.5 0.1 0.3
v 0.5 0.1 0.2
v 0.6 0.1 0.2
v 0.5 0.1 -0.7
v 0.6 0.1 -0.7
v -1.2 0.1 -0.8
v 0.3 0.1 -0.8
v -1.2 0.1 -0.9
v 0.3 0.1 -0.9
v -1.1 0.2 0.5
v 0.2 0.2 0.5
v -1.1 0.2 0.4
v 0.2 0.2 0.4
v -1.5 0.2 0.2
v -1.4 0.2 0.2
v -1.5 0.2 -0.7
v -1.4 0.2 -0.7
v -1.3 0.2 -0.8
v -1.2 0.2 -0.8
v 0.3 0.2 -0.8
v 0.4 0.2 -0.8
v -1.3 0.2 -0.9
v -1.2 0.2 -0.9
v 0.3 0.2 -0.9
v 0.4 0.2 -0.9
v -1.2 0.3 0.5
v -1.1 0.3 0.5
v 0.2 0.3 0.5
v 0.3 0.3 0.5
v -1.2 0.3 0.4
v -1.1 0.3 0.4
v 0.2 0.3 0.4
v 0.3 0.3 0.4
v -1.6 0.4 0
v -1.5 0.4 0
v 0.6 0.4 0
v 0.7 0.4 0
v -1.6 0.4 -0.5
v -1.5 0.4 -0.5
v 0.6 0.4 -0.5
v 0.7 0.4 -0.5
v -1.6 1.5 0
v -1.5 1.5 0
v 0.6 1.5 0
v 0.7 1.5 0
v -1.6 1.5 -0.5
v -1.5 1.5 -0.5
v 0.6 1.5 -0.5
v 0.7 1.5 -0.5
v -1.2 1.6 0.5
v -1.1 1.6 0.5
v 0.2 1.6 0.5
v 0.3 1.6 0.5
v -1.2 1.6 0.4
v -1.1 1.6 0.4
v 0.2 1.6 0.4
v 0.3 1.6 0.4
v -1.3 1.6 -0.8
v -1.2 1.6 -0.8
v 0.3 1.6 -0.8
v 0.4 1.6 -0.8
v -1.3 1.6 -0.9
v -1.2 1.6 -0.9
v 0.3 1.6 -0.9
v 0.4 1.6 -0.9
v -1.1 1.7 0.5
v 0.2 1.7 0.5
v -1.1 1.7 0.4
v 0.2 1.7 0.4
v -1.5 1.7 0.2
v -1.4 1.7 0.2
v 0.5 1.7 0.2
v 0.6 1.7 0.2
v -1.5 1.7 -0.7
v -1.4 1.7 -0.7
v 0.5 1.7 -0.7
v 0.6 1.7 -0.7
v -1.2 1.7 -0.8
v 0.3 1.7 -0.8
v -1.2 1.7 -0.9
v 0.3 1.7 -0.9
v -1.4 1.8 0.4
v -1.3 1.8 0.4
v 0.4 1.8 0.4
v 0.5 1.8 0.4
v -1.4 1.8 -0.8
v -1.3 1.8 -0.8
v 0.4 1.8 -0.8
v 0.5 1.8 -0.8
v -1.3 1.9 0.4
v 0.4 1.9 0.4
v -1.2 1.9 0.1
v 0.3 1.9 0.1
v -1.2 1.9 -0.6
v 0.3 1.9 -0.6
v -1.3 1.9 -0.8
v 0.4 1.9 -0.8
v -1.2 2 0.1
v 0.3 2 0.1
v -1.2 2 0
v 0.3 2 0
v -1.2 2 -0.5
v 0.3 2 -0.5
v -1.2 2 -0.6
v 0.3 2 -0.6
v -1.2 2.1 0
v 0.3 2.1 0
v -1.1 2.1 -0.1
v 0.2 2.1 -0.1
v -1.1 2.1 -0.4
v 0.2 2.1 -0.4
v -1.2 2.1 -0.5
v 0.3 2.1 -0.5

# faces
f 3/5/1 2/5/1 1/5/1
f 4/5/1 2/5/1 3/5/1
f 7/5/1 6/5/1 5/5/1
f 8/5/1 6/5/1 7/5/1
f 9/5/1 7/5/1 5/5/1
f 10/5/1 6/5/1 8/5/1
f 11/5/1 9/5/1 5/5/1
f 11/5/1 10/5/1 9/5/1
f 12/5/1 6/5/1 10/5/1
f 12/5/1 10/5/1 11/5/1
f 16/5/1 14/5/1 13/5/1
f 17/5/1 14/5/1 16/5/1
f 17/5/1 16/5/1 15/5/1
f 18/5/1 14/5/1 17/5/1
f 19/5/1 17/5/1 15/5/1
f 20/5/1 14/5/1 18/5/1
f 21/5/1 19/5/1 15/5/1
f 21/5/1 20/5/1 19/5/1
f 22/5/1 14/5/1 20/5/1
f 22/5/1 20/5/1 21/5/1
f 25/5/1 24/5/1 23/5/1
f 26/5/1 24/5/1 25/5/1
f 29/5/1 28/5/1 27/5/1
f 30/5/1 28/5/1 29/5/1
f 33/5/1 32/5/1 31/5/1
f 34/5/1 32/5/1 33/5/1
f 37/5/1 36/5/1 35/5/1
f 38/5/1 36/5/1 37/5/1
f 41/5/1 40/5/1 39/5/1
f 42/5/1 40/5/1 41/5/1
f 45/5/1 44/5/1 43/5/1
f 46/5/1 44/5/1 45/5/1
f 49/5/1 48/5/1 47/5/1
f 50/5/1 48/5/1 49/5/1
f 51/5/1 48/5/1 50/5/1
f 52/5/1 48/5/1 51/5/1
f 53/5/1 51/5/1 50/5/1
f 54/5/1 51/5/1 53/5/1
f 57/5/1 56/5/1 55/5/1
f 58/5/1 56/5/1 57/5/1
f 61/5/1 60/5/1 59/5/1
f 62/5/1 60/5/1 61/5/1
f 63/5/2 64/5/2 65/5/2
f 65/5/2 64/5/2 66/5/2
f 67/5/2 68/5/2 69/5/2
f 69/5/2 68/5/2 70/5/2
f 71/5/2 72/5/2 73/5/2
f 73/5/2 72/5/2 74/5/2
f 75/5/2 76/5/2 77/5/2
f 77/5/2 76/5/2 78/5/2
f 79/5/2 80/5/2 81/5/2
f 81/5/2 80/5/2 82/5/2
f 83/5/2 84/5/2 85/5/2
f 85/5/2 84/5/2 86/5/2
f 86/5/2 84/5/2 87/5/2
f 87/5/2 84/5/2 88/5/2
f 86/5/2 87/5/2 89/5/2
f 89/5/2 87/5/2 90/5/2
f 91/5/2 92/5/2 93/5/2
f 93/5/2 92/5/2 94/5/2
f 95/5/2 96/5/2 97/5/2
f 97/5/2 96/5/2 98/5/2
f 99/5/2 100/5/2 101/5/2
f 101/5/2 100/5/2 102/5/2
f 103/5/2 104/5/2 106/5/2
f 106/5/2 104/5/2 107/5/2
f 107/5/2 104/5/2 108/5/2
f 105/5/2 106/5/2 109/5/2
f 106/5/2 107/5/2 109/5/2
f 108/5/2 104/5/2 110/5/2
f 105/5/2 109/5/2 111/5/2
f 109/5/2 110/5/2 111/5/2
f 110/5/2 104/5/2 112/5/2
f 111/5/2 110/5/2 112/5/2
f 113/5/2 114/5/2 115/5/2
f 115/5/2 114/5/2 116/5/2
f 113/5/2 115/5/2 117/5/2
f 116/5/2 114/5/2 118/5/2
f 113/5/2 117/5/2 119/5/2
f 117/5/2 118/5/2 119/5/2
f 118/5/2 114/5/2 120/5/2
f 119/5/2 118/5/2 120/5/2
f 121/5/2 122/5/2 123/5/2
f 123/5/2 122/5/2 124/5/2
f 128/5/3 126/5/3 125/5/3
f 129/5/3 126/5/3 128/5/3
f 131/4/3 129/4/3 128/4/3
f 132/4/3 129/4/3 131/4/3
f 133/6/3 132/6/3 131/6/3
f 134/6/3 132/6/3 133/6/3
f 135/6/3 133/6/3 131/6/3
f 135/1/3 134/1/3 133/1/3
f 136/1/3 134/1/3 135/1/3
f 137/6/3 132/6/3 134/6/3
f 137/1/3 134/1/3 136/1/3
f 138/6/3 132/6/3 137/6/3
f 139/2/3 136/2/3 135/2/3
f 139/1/3 137/1/3 136/1/3
f 139/1/3 138/1/3 137/1/3
f 140/1/3 138/1/3 139/1/3
f 141/6/3 132/6/3 138/6/3
f 141/1/3 138/1/3 140/1/3
f 142/6/3 132/6/3 141/6/3
f 143/2/3 140/2/3 139/2/3
f 143/6/3 135/6/3 131/6/3
f 143/2/3 139/2/3 135/2/3
f 144/2/3 140/2/3 143/2/3
f 145/1/3 142/1/3 141/1/3
f 145/2/3 140/2/3 144/2/3
f 145/1/3 141/1/3 140/1/3
f 146/1/3 142/1/3 145/1/3
f 147/6/3 132/6/3 142/6/3
f 147/1/3 142/1/3 146/1/3
f 148/6/3 132/6/3 147/6/3
f 149/2/3 146/2/3 145/2/3
f 149/6/3 144/6/3 143/6/3
f 149/2/3 145/2/3 144/2/3
f 150/2/3 146/2/3 149/2/3
f 151/1/3 148/1/3 147/1/3
f 151/2/3 146/2/3 150/2/3
f 151/1/3 147/1/3 146/1/3
f 152/1/3 148/1/3 151/1/3
f 153/6/3 150/6/3 149/6/3
f 153/2/3 151/2/3 150/2/3
f 153/2/3 152/2/3 151/2/3
f 154/2/3 152/2/3 153/2/3
f 155/6/3 154/6/3 153/6/3
f 155/2/3 152/2/3 154/2/3
f 156/1/3 148/1/3 152/1/3
f 156/2/3 152/2/3 155/2/3
f 157/6/3 132/6/3 148/6/3
f 157/1/3 148/1/3 156/1/3
f 158/4/3 131/4/3 128/4/3
f 158/6/3 156/6/3 155/6/3
f 158/6/3 157/6/3 156/6/3
f 158/6/3 153/6/3 149/6/3
f 158/6/3 149/6/3 143/6/3
f 158/6/3 143/6/3 131/6/3
f 158/6/3 155/6/3 153/6/3
f 159/6/3 132/6/3 157/6/3
f 159/6/3 157/6/3 158/6/3
f 159/4/3 129/4/3 132/4/3
f 160/5/3 128/5/3 127/5/3
f 161/4/3 158/4/3 128/4/3
f 161/5/3 128/5/3 160/5/3
f 161/4/3 159/4/3 158/4/3
f 162/4/3 129/4/3 159/4/3
f 162/4/3 159/4/3 161/4/3
f 162/5/3 130/5/3 129/5/3
f 163/5/3 130/5/3 162/5/3
f 164/5/3 162/5/3 161/5/3
f 165/5/3 162/5/3 164/5/3
f 169/5/3 167/5/3 166/5/3
f 170/5/3 167/5/3 169/5/3
f 172/5/3 169/5/3 168/5/3
f 172/5/3 171/5/3 170/5/3
f 172/5/3 170/5/3 169/5/3
f 173/5/3 171/5/3 172/5/3
f 174/5/3 172/5/3 168/5/3
f 175/5/3 172/5/3 174/5/3
f 176/5/3 171/5/3 173/5/3
f 177/5/3 171/5/3 176/5/3
f 178/5/3 174/5/3 168/5/3
f 181/5/3 171/5/3 177/5/3
f 182/5/3 179/5/3 178/5/3
f 183/5/3 181/5/3 180/5/3
f 184/5/3 182/5/3 178/5/3
f 184/5/3 183/5/3 182/5/3
f 184/5/3 178/5/3 168/5/3
f 185/5/3 183/5/3 184/5/3
f 186/5/3 181/5/3 183/5/3
f 186/5/3 183/5/3 185/5/3
f 186/5/3 171/5/3 181/5/3
f 187/5/3 171/5/3 186/5/3
f 188/5/3 186/5/3 185/5/3
f 189/5/3 186/5/3 188/5/3
f 192/5/3 191/5/3 190/5/3
f 193/5/3 191/5/3 192/5/3
f 196/5/3 195/5/3 194/5/3
f 197/5/3 195/5/3 196/5/3
f 200/5/3 199/5/3 198/5/3
f 201/5/3 199/5/3 200/5/3
f 204/5/3 203/5/3 202/5/3
f 205/5/3 203/5/3 204/5/3
f 208/5/3 207/5/3 206/5/3
f 209/5/3 207/5/3 208/5/3
f 212/5/3 211/5/3 210/5/3
f 213/5/3 211/5/3 212/5/3
f 216/5/3 215/5/3 214/5/3
f 217/5/3 215/5/3 216/5/3
f 220/5/3 219/5/3 218/5/3
f 221/5/3 219/5/3 220/5/3
f 222/5/4 223/5/4 224/5/4
f 224/5/4 223/5/4 225/5/4
f 226/5/4 227/5/4 228/5/4
f 228/5/4 227/5/4 229/5/4
f 230/5/4 231/5/4 232/5/4
f 232/5/4 231/5/4 233/5/4
f 234/5/4 235/5/4 236/5/4
f 236/5/4 235/5/4 237/5/4
f 238/5/4 239/5/4 240/5/4
f 240/5/4 239/5/4 241/5/4
f 242/5/4 243/5/4 244/5/4
f 244/5/4 243/5/4 245/5/4
f 246/5/4 247/5/4 248/5/4
f 248/5/4 247/5/4 249/5/4
f 249/5/4 247/5/4 250/5/4
f 246/5/4 248/5/4 252/5/4
f 252/5/4 248/5/4 253/5/4
f 250/5/4 251/5/4 254/5/4
f 249/5/4 250/5/4 254/5/4
f 254/5/4 251/5/4 255/5/4
f 246/5/4 252/5/4 256/5/4
f 255/5/4 251/5/4 259/5/4
f 256/5/4 257/5/4 260/5/4
f 258/5/4 259/5/4 261/5/4
f 259/5/4 251/5/4 262/5/4
f 261/5/4 259/5/4 262/5/4
f 262/5/4 251/5/4 263/5/4
f 256/5/4 260/5/4 264/5/4
f 246/5/4 256/5/4 264/5/4
f 261/5/4 262/5/4 264/5/4
f 260/5/4 261/5/4 264/5/4
f 264/5/4 262/5/4 265/5/4
f 266/5/4 267/5/4 269/5/4
f 269/5/4 267/5/4 270/5/4
f 268/5/4 269/5/4 272/5/4
f 270/5/4 271/5/4 272/5/4
f 269/5/4 270/5/4 272/5/4
f 272/5/4 271/5/4 273/5/4
f 273/5/4 271/5/4 274/5/4
f 274/5/4 271/5/4 275/5/4
f 273/5/4 274/5/4 276/5/4
f 276/5/4 274/5/4 277/5/4
f 281/5/5 279/5/5 278/5/5
f 282/5/5 279/5/5 281/5/5
f 284/5/5 281/5/5 280/5/5
f 284/5/5 283/5/5 282/5/5
f 284/5/5 282/5/5 281/5/5
f 285/5/5 283/5/5 284/5/5
f 290/5/5 287/5/5 286/5/5
f 291/5/5 287/5/5 290/5/5
f 292/5/5 289/5/5 288/5/5
f 293/5/5 289/5/5 292/5/5
f 296/5/5 295/5/5 294/5/5
f 297/5/5 295/5/5 296/5/5
f 300/5/5 299/5/5 298/5/5
f 301/5/5 299/5/5 300/5/5
f 304/5/5 303/5/5 302/5/5
f 305/5/5 303/5/5 304/5/5
f 308/5/5 307/5/5 306/5/5
f 309/5/5 307/5/5 308/5/5
f 314/5/5 311/5/5 310/5/5
f 315/5/5 311/5/5 314/5/5
f 316/5/5 313/5/5 312/5/5
f 317/5/5 313/5/5 316/5/5
f 322/5/5 319/5/5 318/5/5
f 323/5/5 319/5/5 322/5/5
f 324/5/5 321/5/5 320/5/5
f 325/5/5 321/5/5 324/5/5
f 330/5/5 327/5/5 326/5/5
f 331/5/5 327/5/5 330/5/5
f 332/5/5 329/5/5 328/5/5
f 333/5/5 329/5/5 332/5/5
f 334/5/6 335/5/6 338/5/6
f 338/5/6 335/5/6 339/5/6
f 336/5/6 337/5/6 340/5/6
f 340/5/6 337/5/6 341/5/6
f 342/5/6 343/5/6 346/5/6
f 346/5/6 343/5/6 347/5/6
f 344/5/6 345/5/6 348/5/6
f 348/5/6 345/5/6 349/5/6
f 350/5/6 351/5/6 354/5/6
f 354/5/6 351/5/6 355/5/6
f 352/5/6 353/5/6 356/5/6
f 356/5/6 353/5/6 357/5/6
f 358/5/6 359/5/6 360/5/6
f 360/5/6 359/5/6 361/5/6
f 362/5/6 363/5/6 366/5/6
f 366/5/6 363/5/6 367/5/6
f 364/5/6 365/5/6 368/5/6
f 368/5/6 365/5/6 369/5/6
f 370/5/6 371/5/6 372/5/6
f 372/5/6 371/5/6 373/5/6
f 374/5/6 375/5/6 378/5/6
f 378/5/6 375/5/6 379/5/6
f 376/5/6 377/5/6 380/5/6
f 380/5/6 377/5/6 381/5/6
f 382/5/6 383/5/6 384/5/6
f 384/5/6 383/5/6 385/5/6
f 382/5/6 384/5/6 386/5/6
f 385/5/6 383/5/6 387/5/6
f 382/5/6 386/5/6 388/5/6
f 386/5/6 387/5/6 388/5/6
f 387/5/6 383/5/6 389/5/6
f 388/5/6 387/5/6 389/5/6
f 390/5/6 391/5/6 392/5/6
f 392/5/6 391/5/6 393/5/6
f 394/5/6 395/5/6 396/5/6
f 396/5/6 395/5/6 397/5/6
f 398/5/6 399/5/6 400/5/6
f 400/5/6 399/5/6 401/5/6
f 398/5/6 400/5/6 402/5/6
f 400/3/6 401/3/6 402/3/6
f 401/5/6 399/5/6 403/5/6
f 402/3/6 401/3/6 403/3/6
f 398/5/6 402/5/6 404/5/6
f 402/5/6 403/5/6 404/5/6
f 403/5/6 399/5/6 405/5/6
f 404/5/6 403/5/6 405/5/6
